<svg xmlns="http://www.w3.org/2000/svg" viewBox="0 0 168.82 149.9">
  <title>LQID-shape</title>
  <g id="Layer_1" data-name="Layer 1">
    <path d="M168.78,112.46h0l0,0h0c0-.37,0-.72,0-1.09V111h0c-.53-13.43-5.18-20.56-11.53-27.83-9.19-10.53-26.08-20.45-26.08-45.68,0-6-.86-8.24-1-8.58h0A37.4,37.4,0,0,0,93.87,0C72.59,0,65.38,12.62,43.92,37.48c-.26.31-.54.62-.81.92h0a115,115,0,0,1-8,8.67h0C18.5,64.45,0,77.07,0,100.26c0,24.93,21.35,37.49,37.47,37.49,14.37,0,27.61-2.72,37.39-2.72,18,0,31.57,14.87,55.86,14.87,20.75,0,37.15-16.45,38.06-35.77h0V114c0-.53,0-1.06,0-1.59Z" fill="#ff1654"/>
  </g>
</svg>
