<svg xmlns="http://www.w3.org/2000/svg" viewBox="0 0 168.82 149.9">
  <title>LQID-shape-text</title>
  <g id="Layer_1" data-name="Layer 1">
    <g>
      <path d="M168.78,112.46h0l0,0h0c0-.37,0-.72,0-1.09V111h0c-.53-13.43-5.18-20.56-11.53-27.83-9.19-10.53-26.08-20.45-26.08-45.68,0-6-.86-8.24-1-8.58h0A37.4,37.4,0,0,0,93.87,0C72.59,0,65.38,12.62,43.92,37.48c-.26.31-.54.62-.81.92h0a115,115,0,0,1-8,8.67h0C18.5,64.45,0,77.07,0,100.26c0,24.93,21.35,37.49,37.47,37.49,14.37,0,27.61-2.72,37.39-2.72,18,0,31.57,14.87,55.86,14.87,20.75,0,37.15-16.45,38.06-35.77h0V114c0-.53,0-1.06,0-1.59Z" fill="#ff1654"/>
      <path d="M43.06,119.06H22.21a3.32,3.32,0,0,1-3.42-3.33V84.47a3.4,3.4,0,0,1,6.79,0v28.58H43.06a3,3,0,1,1,0,6Z" fill="#fff"/>
      <path d="M89.4,100.26a19.11,19.11,0,0,1-3.91,11.55l2.48,2A3.2,3.2,0,0,1,86,119.55a3.28,3.28,0,0,1-2.37-1l-2.76-2.42a20.43,20.43,0,0,1-11.75,3.55C57.3,119.71,49,111,49,100.37v-.11c0-10.58,8.39-19.44,20.25-19.44S89.4,89.57,89.4,100.16Z" fill="#fff"/>
      <path d="M104.8,116.06a3.4,3.4,0,0,1-6.79,0V84.47a3.4,3.4,0,0,1,6.79,0Z" fill="#fff"/>
      <path d="M150,100.26c0,10.59-8.38,18.8-20.52,18.8h-11a3.32,3.32,0,0,1-3.42-3.33V84.79a3.32,3.32,0,0,1,3.42-3.33h11c12.14,0,20.52,8.11,20.52,18.7Z" fill="#fff"/>
      <path d="M129.51,87.48H121.9v25.57h7.61c8.11,0,13.41-5.32,13.41-12.68v-.11C142.92,92.9,137.62,87.48,129.51,87.48Z" fill="#ff1654"/>
      <path d="M69.16,86.89c-7.67,0-13,6-13,13.27v.1a13,13,0,0,0,13.13,13.33,13.35,13.35,0,0,0,6.67-1.72l-4.8-4a3.2,3.2,0,0,1,1.94-5.75,3.38,3.38,0,0,1,2.37,1l5,4.4a13.75,13.75,0,0,0,1.88-7.14v-.11A13,13,0,0,0,69.16,86.89Z" fill="#ff1654"/>
    </g>
  </g>
</svg>
